<mxfile host="app.diagrams.net" modified="2021-06-09T15:03:31.284Z" agent="5.0 (Windows NT 10.0; Win64; x64) AppleWebKit/537.36 (KHTML, like Gecko) Chrome/91.0.4472.77 Safari/537.36" etag="ZE-GCRfKJzU461b9bYrn" version="14.7.2" type="github">
  <diagram id="jI12S7peZDQ7Qd14oUT0" name="Page-1">
    <mxGraphModel dx="2077" dy="1118" grid="1" gridSize="10" guides="1" tooltips="1" connect="1" arrows="1" fold="1" page="1" pageScale="1" pageWidth="827" pageHeight="1169" math="0" shadow="0">
      <root>
        <mxCell id="0" />
        <mxCell id="1" parent="0" />
        <mxCell id="dlI5eMaLBHoIxxVkf40H-1" value="&lt;b&gt;&lt;font style=&quot;font-size: 14px&quot;&gt;To-Do Application&lt;br&gt;&lt;/font&gt;&lt;/b&gt;[Flask]&lt;br&gt;&lt;br&gt;&lt;div style=&quot;text-align: left&quot;&gt;&lt;span&gt;Allows users to add, view and interact with their to-do items&lt;/span&gt;&lt;/div&gt;" style="whiteSpace=wrap;html=1;aspect=fixed;fillColor=#dae8fc;strokeColor=#6c8ebf;" vertex="1" parent="1">
          <mxGeometry x="40" y="460" width="170" height="170" as="geometry" />
        </mxCell>
      </root>
    </mxGraphModel>
  </diagram>
</mxfile>
